<?xml version="1.0" encoding="UTF-8"?>
<svg viewBox="0 0 1073 235" xmlns="http://www.w3.org/2000/svg">
    <g transform="matrix(1,0,0,1,-729.094822,-146.655345)">
        <g transform="matrix(0.576082,0,0,0.536194,757.512937,-259.922081)">
            <path d="M130.254,849.13C130.254,842.209 749.94,758.266 1110.439,758.266C1470.937,758.266 1812.761,805.599 1812.761,874C1812.761,942.401 1517,969.436 1517,969.436C1844.687,927.966 1651.467,803 1055.264,803C745.127,803 439.383,824.145 130.254,849.13Z" fill="#F59C29"/>
        </g>
        <g transform="matrix(6.551461,0,0,6.551461,-2225.042797,-15971.149231)">
            <path d="M455.31 2478.77L455.31 2478.77L451.91 2478.77Q451.91 2474.69 453.76 2473.29Q455.60 2471.89 460.97 2471.89L460.97 2471.89Q466.81 2471.89 468.86 2473.61Q470.91 2475.33 470.91 2480.16L470.91 2480.16L470.91 2495.57L467.49 2495.57L467.76 2493.05L467.69 2493.03Q465.73 2495.91 459.75 2495.91L459.75 2495.91Q450.91 2495.91 450.91 2488.81L450.91 2488.81Q450.91 2484.58 452.89 2482.97Q454.87 2481.36 460.04 2481.36L460.04 2481.36Q466.20 2481.36 467.42 2483.78L467.42 2483.78L467.49 2483.75L467.49 2480.92Q467.49 2476.92 466.39 2475.73Q465.29 2474.55 461.58 2474.55L461.58 2474.55Q455.28 2474.55 455.28 2478.09L455.28 2478.09Q455.28 2478.26 455.31 2478.77ZM460.80 2484.02L460.80 2484.02Q456.87 2484.02 455.69 2484.85Q454.50 2485.68 454.50 2488.42L454.50 2488.42Q454.50 2491.25 455.67 2492.16Q456.85 2493.08 460.43 2493.08L460.43 2493.08Q467.66 2493.08 467.66 2488.68L467.66 2488.68Q467.66 2485.93 466.26 2484.97Q464.85 2484.02 460.80 2484.02ZM477.57 2495.57L477.57 2472.23L480.99 2472.23L480.65 2474.91L480.72 2474.99Q482.75 2471.69 487.41 2471.69L487.41 2471.69Q493.86 2471.69 493.86 2478.33L493.86 2478.33L493.83 2479.94L490.46 2479.94L490.54 2479.36Q490.61 2478.43 490.61 2478.11L490.61 2478.11Q490.61 2474.52 486.70 2474.52L486.70 2474.52Q480.99 2474.52 480.99 2481.58L480.99 2481.58L480.99 2495.57L477.57 2495.57ZM513.19 2487.15L513.19 2487.15L516.61 2487.15L516.64 2488.42Q516.64 2495.91 506.82 2495.91L506.82 2495.91Q500.52 2495.91 498.50 2493.54Q496.47 2491.17 496.47 2483.78L496.47 2483.78Q496.47 2476.84 498.53 2474.37Q500.60 2471.89 506.38 2471.89L506.38 2471.89Q512.07 2471.89 514.15 2473.56Q516.22 2475.23 516.22 2479.85L516.22 2479.85L512.80 2479.85L512.80 2479.24Q512.80 2476.53 511.46 2475.62Q510.12 2474.72 506.11 2474.72L506.11 2474.72Q502.26 2474.72 501.16 2476.43Q500.06 2478.14 500.06 2484.09L500.06 2484.09Q500.06 2489.90 501.32 2491.49Q502.57 2493.08 507.19 2493.08L507.19 2493.08Q511.09 2493.08 512.14 2492.04Q513.19 2491.00 513.19 2487.15ZM524.96 2478.77L524.96 2478.77L521.57 2478.77Q521.57 2474.69 523.41 2473.29Q525.25 2471.89 530.62 2471.89L530.62 2471.89Q536.46 2471.89 538.51 2473.61Q540.56 2475.33 540.56 2480.16L540.56 2480.16L540.56 2495.57L537.14 2495.57L537.41 2493.05L537.34 2493.03Q535.39 2495.91 529.40 2495.91L529.40 2495.91Q520.57 2495.91 520.57 2488.81L520.57 2488.81Q520.57 2484.58 522.54 2482.97Q524.52 2481.36 529.70 2481.36L529.70 2481.36Q535.85 2481.36 537.07 2483.78L537.07 2483.78L537.14 2483.75L537.14 2480.92Q537.14 2476.92 536.04 2475.73Q534.95 2474.55 531.24 2474.55L531.24 2474.55Q524.94 2474.55 524.94 2478.09L524.94 2478.09Q524.94 2478.26 524.96 2478.77ZM530.45 2484.02L530.45 2484.02Q526.52 2484.02 525.34 2484.85Q524.16 2485.68 524.16 2488.42L524.16 2488.42Q524.16 2491.25 525.33 2492.16Q526.50 2493.08 530.09 2493.08L530.09 2493.08Q537.31 2493.08 537.31 2488.68L537.31 2488.68Q537.31 2485.93 535.91 2484.97Q534.51 2484.02 530.45 2484.02ZM550.28 2472.23L559.26 2472.23L559.26 2475.06L550.28 2475.06L550.28 2489.34Q550.28 2493.08 553.60 2493.08L553.60 2493.08Q556.89 2493.08 556.89 2489.73L556.89 2489.73L556.92 2488.59L556.97 2487.29L560.14 2487.29L560.17 2489.03Q560.17 2495.91 553.62 2495.91L553.62 2495.91Q546.86 2495.91 546.86 2490.17L546.86 2490.17L546.86 2489.34L546.86 2475.06L543.64 2475.06L543.64 2472.23L546.86 2472.23L546.86 2466.61L550.28 2466.61L550.28 2472.23ZM579.40 2489.25L579.40 2488.51L582.90 2488.51L582.92 2489.37Q582.92 2493.01 580.71 2494.46Q578.50 2495.91 572.96 2495.91L572.96 2495.91Q566.51 2495.91 564.50 2493.55Q562.49 2491.20 562.49 2483.65L562.49 2483.65Q562.49 2476.67 564.51 2474.28Q566.54 2471.89 572.45 2471.89L572.45 2471.89Q578.89 2471.89 580.89 2473.96Q582.90 2476.04 582.90 2482.70L582.90 2482.70L582.90 2484.53L566.10 2484.53Q566.10 2490.05 567.28 2491.57Q568.47 2493.08 572.81 2493.08L572.81 2493.08Q576.94 2493.08 578.17 2492.36Q579.40 2491.64 579.40 2489.25L579.40 2489.25ZM566.15 2481.87L579.40 2481.87L579.38 2480.77Q579.38 2476.99 578.13 2475.85Q576.89 2474.72 572.76 2474.72L572.76 2474.72Q568.61 2474.72 567.38 2476.05Q566.15 2477.38 566.15 2481.87L566.15 2481.87Z" fill="#14181A"/>
        </g>
    </g>
</svg>
